#!OML:ASF F:\VICON\USERDATA\INSTALL\rory3\rory3.ASF
:FULLY-SPECIFIED
:DEGREES
2044
root -3.90308 14.7402 20.3144 686.762 -9.66265 39.8547
lowerback -22.0107 -7.58655 2.74607
upperback -18.5987 -10.3654 3.18834
thorax -8.5149 -5.56044 0.572385
lowerneck 6.4823 -23.6931 -29.2319
upperneck -11.0147 -35.2107 36.313
head 7.90428 -17.3231 10.6809
rclavicle -4.45278e-014 -1.74931e-014
rhumerus -15.5875 -46.4119 30.5821
rradius 37.0192
rwrist -6.37408
rhand -18.1922 -51.862
rfingers 7.12502
rthumb -171.915 458.313
lclavicle -4.45278e-014 -1.74931e-014
lhumerus -0.227075 12.8848 18.7798
lradius 23.0075
lwrist 35.9644
lhand -29.5713 -11.4192
lfingers 7.12502
lthumb -2.90341 18.5408
rfemur -37.8153 -3.31396 34.5524
rtibia 55.3164
rfoot 1.2677 -22.1417
rtoes 28.0901
lfemur 7.96185 28.8585 -6.40234
ltibia 83.9157
lfoot 11.7935 -4.08274
ltoes -1.63765
2045
root -3.87491 14.7423 20.2548 687.6 -8.78643 39.8442
lowerback -22.0464 -7.70632 2.52195
upperback -18.8233 -10.4763 3.16058
thorax -8.74136 -5.59957 0.670061
lowerneck 6.82482 -23.6827 -28.9151
upperneck -11.3942 -35.0238 35.9801
head 7.53591 -17.2963 10.686
rclavicle 5.40694e-014 -1.11319e-014
rhumerus -15.0937 -46.8821 30.3538
rradius 36.7933
rwrist -5.76465
rhand -18.7566 -49.417
rfingers 7.12502
rthumb -172.46 460.737
lclavicle 5.40694e-014 -1.11319e-014
lhumerus -0.220809 13.7931 19.0803
lradius 22.8843
lwrist 34.9484
lhand -29.4976 -11.0912
lfingers 7.12502
lthumb -2.83231 18.8698
rfemur -38.3278 -3.78447 34.3011
rtibia 55.4368
rfoot 1.39812 -21.9323
rtoes 27.5686
lfemur 7.20985 28.5818 -7.2707
ltibia 83.8988
lfoot 11.8814 -3.70448
ltoes -2.05868
2046
root -3.84266 14.752 20.2094 688.334 -7.67372 40.6406
lowerback -22.3502 -7.80058 1.77791
upperback -19.0146 -10.5021 2.92993
thorax -8.73727 -5.5658 0.787506
lowerneck 6.80583 -23.7777 -28.7029
upperneck -11.2351 -35.0491 35.3581
head 7.38483 -17.3003 10.4822
rclavicle -4.13472e-014 -6.20208e-014
rhumerus -14.5277 -47.182 29.9679
rradius 36.6912
rwrist -5.37955
rhand -19.0516 -47.5754
rfingers 7.12502
rthumb -172.745 462.569
lclavicle -4.13472e-014 -6.20208e-014
lhumerus -0.313214 14.4305 19.1211
lradius 22.8308
lwrist 34.3312
lhand -29.5623 -10.7106
lfingers 7.12502
lthumb -2.89475 19.2495
rfemur -38.7967 -4.22193 33.1315
rtibia 55.3397
rfoot 1.52296 -21.593
rtoes 27.6221
lfemur 6.53639 28.4462 -9.25807
ltibia 83.7716
lfoot 11.6901 -3.28739
ltoes -3.19906
2047
root -3.85643 14.7348 20.1866 688.381 -7.38306 40.4806
lowerback -21.9427 -7.92092 1.63137
upperback -18.8737 -10.6157 3.02314
thorax -8.71331 -5.58622 0.981829
lowerneck 6.71835 -23.8551 -28.565
upperneck -11.0481 -35.1324 35.1485
head 7.39618 -17.3256 10.3672
rclavicle 9.54166e-015 -4.77083e-015
rhumerus -14.0935 -47.6935 29.5214
rradius 36.6207
rwrist -4.82376
rhand -18.8919 -48.8343
rfingers 7.12502
rthumb -172.59 461.315
lclavicle 9.54166e-015 -4.77083e-015
lhumerus -0.190646 15.3975 19.0618
lradius 22.6766
lwrist 33.5981
lhand -29.1578 -9.87444
lfingers 7.12502
lthumb -2.50413 20.0906
rfemur -38.2382 -4.04774 33.3952
rtibia 55.4593
rfoot 1.42334 -21.9407
rtoes 27.346
lfemur 7.25926 28.473 -8.381
ltibia 83.7167
lfoot 11.4282 -4.20254
ltoes -4.3954
2048
root -3.85112 14.7463 20.1849 688.03 -5.36783 41.8011
lowerback -21.8199 -8.3658 -0.238854
upperback -18.6102 -10.9357 2.32573
thorax -8.24909 -5.60759 1.13808
lowerneck 6.59461 -23.8909 -28.4073
upperneck -10.7523 -35.2257 35.146
head 7.50342 -17.3509 10.2988
rclavicle -2.8625e-014 7.31528e-014
rhumerus -13.8477 -48.3203 29.1783
rradius 36.4274
rwrist -4.05738
rhand -19.8242 -47.9193
rfingers 7.12502
rthumb -173.49 462.201
lclavicle -2.8625e-014 7.31528e-014
lhumerus 0.139006 17.1326 19.1697
lradius 22.326
lwrist 31.9647
lhand -28.2166 -8.81985
lfingers 7.12502
lthumb -1.5951 21.1539
rfemur -37.6354 -5.29946 31.1171
rtibia 55.7582
rfoot 1.344 -21.453
rtoes 26.4955
lfemur 8.36002 27.5836 -10.7719
ltibia 83.0635
lfoot 11.536 -3.43842
ltoes -4.1511
2049
root -3.81848 14.7404 20.1024 689.741 -5.55976 41.1942
lowerback -22.7479 -8.10458 0.96188
upperback -18.8604 -10.7568 2.51605
thorax -8.29273 -5.63995 0.652081
lowerneck 6.39308 -23.9095 -28.2223
upperneck -10.2166 -35.3267 34.9669
head 7.64571 -17.3615 10.1656
rclavicle 4.45278e-014 -9.54166e-015
rhumerus -13.6158 -48.6429 28.9134
rradius 36.2191
rwrist -3.52174
rhand -20.1665 -48.0911
rfingers 7.12502
rthumb -173.821 462.019
lclavicle 4.45278e-014 -9.54166e-015
lhumerus 0.239431 17.9244 19.1581
lradius 22.2222
lwrist 31.1343
lhand -27.7546 -8.97701
lfingers 7.12502
lthumb -1.14892 20.9996
rfemur -38.8567 -4.7141 32.1313
rtibia 55.426
rfoot 1.9871 -21.5273
rtoes 26.4421
lfemur 6.53809 27.9917 -10.5673
ltibia 83.531
lfoot 12.2317 -2.22687
ltoes -0.310179
2050
root -3.8181 14.7363 20.0524 690.533 -6.10066 40.0901
lowerback -22.6898 -7.86413 2.31104
upperback -18.9526 -10.6229 2.92414
thorax -8.60432 -5.67242 0.434249
lowerneck 6.94462 -23.7754 -28.4683
upperneck -10.9194 -35.1643 35.6339
head 7.53098 -17.3751 10.5121
rclavicle 5.08889e-014 3.18055e-015
rhumerus -13.2342 -48.8289 28.6208
rradius 36.1546
rwrist -3.26644
rhand -20.498 -49.5836
rfingers 7.12502
rthumb -174.141 460.517
lclavicle 5.08889e-014 3.18055e-015
lhumerus 0.0244201 17.7114 19.0646
lradius 22.3737
lwrist 31.3497
lhand -27.6965 -9.67021
lfingers 7.12502
lthumb -1.09276 20.3067
rfemur -38.8292 -4.15816 33.803
rtibia 55.1662
rfoot 2.06656 -21.8979
rtoes 26.7205
lfemur 6.32126 28.3712 -8.59766
ltibia 83.8133
lfoot 12.519 -2.11386
ltoes 2.54466
2051
root -3.81171 14.7337 20.0254 690.822 -5.87578 39.8966
lowerback -22.4038 -7.86769 2.48257
upperback -18.952 -10.6328 3.06342
thorax -8.74584 -5.67605 0.532957
lowerneck 7.31249 -23.616 -28.6404
upperneck -11.3006 -34.9766 36.0835
head 7.46506 -17.3493 10.7776
rclavicle 7.63333e-014 6.36111e-015
rhumerus -12.6949 -49.0566 28.263
rradius 36.0369
rwrist -3.0269
rhand -20.4083 -49.6674
rfingers 7.12502
rthumb -174.054 460.436
lclavicle 7.63333e-014 6.36111e-015
lhumerus -0.301439 17.4468 18.9564
lradius 22.609
lwrist 31.9252
lhand -27.51 -9.48935
lfingers 7.12502
lthumb -0.912668 20.4884
rfemur -38.3423 -3.9985 34.0099
rtibia 54.9599
rfoot 1.38034 -22.07
rtoes 28.4016
lfemur 6.71768 28.4489 -8.00121
ltibia 83.9208
lfoot 12.2558 -2.70446
ltoes 1.14997
